<?xml version="1.0" encoding="UTF-8" standalone="no"?>
<svg
   xmlns:dc="http://purl.org/dc/elements/1.1/"
   xmlns:cc="http://creativecommons.org/ns#"
   xmlns:rdf="http://www.w3.org/1999/02/22-rdf-syntax-ns#"
   xmlns:svg="http://www.w3.org/2000/svg"
   xmlns="http://www.w3.org/2000/svg"
   xmlns:sodipodi="http://sodipodi.sourceforge.net/DTD/sodipodi-0.dtd"
   xmlns:inkscape="http://www.inkscape.org/namespaces/inkscape"
   version="1.1"
   x="0px"
   y="0px"
   viewBox="0 0 1000 1000"
   enable-background="new 0 0 1000 1000"
   xml:space="preserve"
   id="svg8"
   sodipodi:docname="RadioUnchecked.svg"
   inkscape:version="1.0.1 (3bc2e813f5, 2020-09-07)"><defs
   id="defs12" /><sodipodi:namedview
   pagecolor="#ffffff"
   bordercolor="#666666"
   borderopacity="1"
   objecttolerance="10"
   gridtolerance="10"
   guidetolerance="10"
   inkscape:pageopacity="0"
   inkscape:pageshadow="2"
   inkscape:window-width="1920"
   inkscape:window-height="1027"
   id="namedview10"
   showgrid="false"
   inkscape:zoom="0.86"
   inkscape:cx="541.27907"
   inkscape:cy="546.51163"
   inkscape:window-x="-8"
   inkscape:window-y="-8"
   inkscape:window-maximized="1"
   inkscape:current-layer="g6" />
<metadata
   id="metadata2"> Svg Vector Icons : http://www.onlinewebfonts.com/icon <rdf:RDF><cc:Work
     rdf:about=""><dc:format>image/svg+xml</dc:format><dc:type
       rdf:resource="http://purl.org/dc/dcmitype/StillImage" /><dc:title></dc:title></cc:Work></rdf:RDF></metadata>
<g
   id="g6"><path
     d="M500,255.1c-135.3,0-244.9,109.8-244.9,244.9c0,135.2,109.7,244.9,244.9,244.9c135.3,0,244.9-109.7,244.9-244.9C744.9,364.7,635.3,255.1,500,255.1z M500,10C229.3,10,10,229.3,10,500c0,270.7,219.3,490,490,490c270.7,0,490-219.3,490-490C990,229.3,770.7,10,500,10z M500,891.9c-216.6,0-391.9-175.4-391.9-391.9c0-216.6,175.4-391.9,391.9-391.9c216.6,0,391.9,175.4,391.9,391.9C891.9,716.6,716.6,891.9,500,891.9z"
     id="path4" /><ellipse
     style="fill:#ffffff;stroke:#000000;stroke-width:3;stroke-dasharray:3, 3"
     id="path843"
     cx="512.20929"
     cy="515.11627"
     rx="266.86047"
     ry="263.95349" /></g>
</svg>
